<?xml version="1.0" encoding="utf-8"?>
<!-- Generator: Adobe Illustrator 15.1.0, SVG Export Plug-In . SVG Version: 6.00 Build 0)  -->
<!DOCTYPE svg PUBLIC "-//W3C//DTD SVG 1.1//EN" "http://www.w3.org/Graphics/SVG/1.1/DTD/svg11.dtd">
<svg version="1.1" id="Layer_1" xmlns="http://www.w3.org/2000/svg" xmlns:xlink="http://www.w3.org/1999/xlink" x="0px" y="0px"
	 width="67.339px" height="100px" viewBox="4.966 0.063 67.339 100" enable-background="new 4.966 0.063 67.339 100"
	 xml:space="preserve">
<path d="M68.74,12.728c0,0-8.785-3.995-26.705-4.459V0.063h-6.798v8.206C17.325,8.733,8.531,12.728,8.531,12.728
	c-1.957,0.889-3.565,3.383-3.565,5.537v65.634c0,2.15,1.764,3.913,3.921,3.913h5.267v3.063l-3.062,9.188h6.118l2.042-6.125h38.771
	l2.042,6.125h6.125l-3.062-9.188v-3.063h5.267c2.15,0,3.913-1.763,3.913-3.913V18.265C72.313,16.111,70.705,13.617,68.74,12.728z
	 M23.334,14.348h30.611c1.687,0,3.062,1.373,3.062,3.062s-1.376,3.063-3.062,3.063H23.334c-1.694,0-3.062-1.373-3.062-3.063
	C20.272,15.717,21.64,14.348,23.334,14.348z M16.598,51.08c-1.346,0-2.444-1.102-2.444-2.447V32.716
	c0-3.384,2.738-6.125,6.118-6.125h12.854c1.354,0,2.452,1.106,2.452,2.452v19.59c0,1.346-1.098,2.447-2.452,2.447H16.598z
	 M38.64,81.688c-2.537,0-4.594-2.05-4.594-4.586c0-2.537,2.058-4.594,4.594-4.594s4.586,2.057,4.586,4.594
	C43.226,79.638,41.177,81.688,38.64,81.688z M38.64,66.39c-2.537,0-4.594-2.057-4.594-4.594s2.058-4.594,4.594-4.594
	s4.586,2.057,4.586,4.594S41.177,66.39,38.64,66.39z M63.126,48.633c0,1.346-1.099,2.447-2.444,2.447H44.146
	c-1.346,0-2.443-1.102-2.443-2.447v-19.59c0-1.346,1.098-2.452,2.443-2.452h12.861c3.38,0,6.118,2.742,6.118,6.125V48.633z"/>
</svg>
